{
    "asset" : {
        "generator" : "Khronos glTF Blender I/O v1.6.16",
        "version" : "2.0"
    },
    "scene" : 0,
    "scenes" : [
        {
            "name" : "Scene",
            "nodes" : [
                0,
                1
            ]
        }
    ],
    "nodes" : [
        {
            "mesh" : 0,
            "name" : "geo_arch_low2"
        },
        {
            "mesh" : 1,
            "name" : "geo_arch_posts2"
        }
    ],
    "materials" : [
        {
            "doubleSided" : true,
            "name" : "mat_arch",
            "normalTexture" : {
                "index" : 0
            },
            "occlusionTexture" : {
                "index" : 1
            },
            "pbrMetallicRoughness" : {
                "baseColorTexture" : {
                    "index" : 2
                },
                "metallicRoughnessTexture" : {
                    "index" : 1
                }
            }
        },
        {
            "doubleSided" : true,
            "name" : "pipes",
            "pbrMetallicRoughness" : {
                "baseColorFactor" : [
                    0.8000000715255737,
                    0.8000000715255737,
                    0.8000000715255737,
                    1
                ],
                "roughnessFactor" : 0.5527864098548889
            }
        }
    ],
    "meshes" : [
        {
            "name" : "Mesh",
            "primitives" : [
                {
                    "attributes" : {
                        "POSITION" : 0,
                        "NORMAL" : 1,
                        "TEXCOORD_0" : 2
                    },
                    "indices" : 3,
                    "material" : 0
                }
            ]
        },
        {
            "name" : "Mesh.001",
            "primitives" : [
                {
                    "attributes" : {
                        "POSITION" : 4,
                        "NORMAL" : 5,
                        "TEXCOORD_0" : 6
                    },
                    "indices" : 7,
                    "material" : 1
                }
            ]
        }
    ],
    "textures" : [
        {
            "sampler" : 0,
            "source" : 0
        },
        {
            "sampler" : 0,
            "source" : 1
        },
        {
            "sampler" : 0,
            "source" : 2
        }
    ],
    "images" : [
        {
            "bufferView" : 4,
            "mimeType" : "image/jpeg",
            "name" : "tex_arch_Normal_OpenGL"
        },
        {
            "bufferView" : 5,
            "mimeType" : "image/png",
            "name" : "tex_arch_Mixed_AO-tex_arch_Roughness-tex_arch_Metallic"
        },
        {
            "bufferView" : 6,
            "mimeType" : "image/jpeg",
            "name" : "tex_arch_Base_Color"
        }
    ],
    "accessors" : [
        {
            "bufferView" : 0,
            "componentType" : 5126,
            "count" : 14743,
            "max" : [
                5.473219871520996,
                7.81960916519165,
                1.1545792818069458
            ],
            "min" : [
                -5.473219871520996,
                -1.043203353881836,
                -1.1316574811935425
            ],
            "type" : "VEC3"
        },
        {
            "bufferView" : 1,
            "componentType" : 5126,
            "count" : 14743,
            "type" : "VEC3"
        },
        {
            "bufferView" : 2,
            "componentType" : 5126,
            "count" : 14743,
            "type" : "VEC2"
        },
        {
            "bufferView" : 3,
            "componentType" : 5123,
            "count" : 15060,
            "type" : "SCALAR"
        },
        {
            "bufferView" : 7,
            "componentType" : 5126,
            "count" : 1120,
            "max" : [
                4.221586227416992,
                6.864564418792725,
                0.37520381808280945
            ],
            "min" : [
                -4.221586227416992,
                0.13495559990406036,
                -0.3965224325656891
            ],
            "type" : "VEC3"
        },
        {
            "bufferView" : 8,
            "componentType" : 5126,
            "count" : 1120,
            "type" : "VEC3"
        },
        {
            "bufferView" : 9,
            "componentType" : 5126,
            "count" : 1120,
            "type" : "VEC2"
        },
        {
            "bufferView" : 10,
            "componentType" : 5123,
            "count" : 2688,
            "type" : "SCALAR"
        }
    ],
    "bufferViews" : [
        {
            "buffer" : 0,
            "byteLength" : 176916,
            "byteOffset" : 0
        },
        {
            "buffer" : 0,
            "byteLength" : 176916,
            "byteOffset" : 176916
        },
        {
            "buffer" : 0,
            "byteLength" : 117944,
            "byteOffset" : 353832
        },
        {
            "buffer" : 0,
            "byteLength" : 30120,
            "byteOffset" : 471776
        },
        {
            "buffer" : 0,
            "byteLength" : 178106,
            "byteOffset" : 501896
        },
        {
            "buffer" : 0,
            "byteLength" : 1649510,
            "byteOffset" : 680004
        },
        {
            "buffer" : 0,
            "byteLength" : 180408,
            "byteOffset" : 2329516
        },
        {
            "buffer" : 0,
            "byteLength" : 13440,
            "byteOffset" : 2509924
        },
        {
            "buffer" : 0,
            "byteLength" : 13440,
            "byteOffset" : 2523364
        },
        {
            "buffer" : 0,
            "byteLength" : 8960,
            "byteOffset" : 2536804
        },
        {
            "buffer" : 0,
            "byteLength" : 5376,
            "byteOffset" : 2545764
        }
    ],
    "samplers" : [
        {
            "magFilter" : 9729,
            "minFilter" : 9987
        }
    ],
    "buffers" : [
        {
            "byteLength" : 2551140,
            "uri" : "data:application/octet-stream;base64,"
        }
    ]
}
