{
    "asset" : {
        "generator" : "Khronos glTF Blender I/O v1.6.16",
        "version" : "2.0"
    },
    "scene" : 0,
    "scenes" : [
        {
            "name" : "Scene",
            "nodes" : [
                0
            ]
        }
    ],
    "nodes" : [
        {
            "mesh" : 0,
            "name" : "crate"
        }
    ],
    "materials" : [
        {
            "doubleSided" : true,
            "name" : "mat_crate1",
            "normalTexture" : {
                "index" : 0
            },
            "occlusionTexture" : {
                "index" : 1
            },
            "pbrMetallicRoughness" : {
                "baseColorTexture" : {
                    "index" : 2
                },
                "metallicRoughnessTexture" : {
                    "index" : 1
                }
            }
        }
    ],
    "meshes" : [
        {
            "name" : "Mesh.004",
            "primitives" : [
                {
                    "attributes" : {
                        "POSITION" : 0,
                        "NORMAL" : 1,
                        "TEXCOORD_0" : 2
                    },
                    "indices" : 3,
                    "material" : 0
                }
            ]
        }
    ],
    "textures" : [
        {
            "sampler" : 0,
            "source" : 0
        },
        {
            "sampler" : 0,
            "source" : 1
        },
        {
            "sampler" : 0,
            "source" : 2
        }
    ],
    "images" : [
        {
            "bufferView" : 4,
            "mimeType" : "image/jpeg",
            "name" : "mat_crate_Normal_OpenGL"
        },
        {
            "bufferView" : 5,
            "mimeType" : "image/png",
            "name" : "mat_crate_Mixed_AO-mat_crate_Roughness-mat_crate_Metallic"
        },
        {
            "bufferView" : 6,
            "mimeType" : "image/jpeg",
            "name" : "mat_crate_Base_Color"
        }
    ],
    "accessors" : [
        {
            "bufferView" : 0,
            "componentType" : 5126,
            "count" : 3398,
            "max" : [
                1.1859710216522217,
                0.690106987953186,
                0.8307750225067139
            ],
            "min" : [
                -1.208824634552002,
                -0.6885031461715698,
                -0.8307750225067139
            ],
            "type" : "VEC3"
        },
        {
            "bufferView" : 1,
            "componentType" : 5126,
            "count" : 3398,
            "type" : "VEC3"
        },
        {
            "bufferView" : 2,
            "componentType" : 5126,
            "count" : 3398,
            "type" : "VEC2"
        },
        {
            "bufferView" : 3,
            "componentType" : 5123,
            "count" : 3696,
            "type" : "SCALAR"
        }
    ],
    "bufferViews" : [
        {
            "buffer" : 0,
            "byteLength" : 40776,
            "byteOffset" : 0
        },
        {
            "buffer" : 0,
            "byteLength" : 40776,
            "byteOffset" : 40776
        },
        {
            "buffer" : 0,
            "byteLength" : 27184,
            "byteOffset" : 81552
        },
        {
            "buffer" : 0,
            "byteLength" : 7392,
            "byteOffset" : 108736
        },
        {
            "buffer" : 0,
            "byteLength" : 49425,
            "byteOffset" : 116128
        },
        {
            "buffer" : 0,
            "byteLength" : 412510,
            "byteOffset" : 165556
        },
        {
            "buffer" : 0,
            "byteLength" : 51110,
            "byteOffset" : 578068
        }
    ],
    "samplers" : [
        {
            "magFilter" : 9729,
            "minFilter" : 9987
        }
    ],
    "buffers" : [
        {
            "byteLength" : 629180,
            "uri" : "data:application/octet-stream;base64,"
        }
    ]
}
